<svg width="128" height="22" viewBox="0 0 128 22" fill="none" xmlns="http://www.w3.org/2000/svg">
<path fill-rule="evenodd" clip-rule="evenodd" d="M3.20901 12.3971H9.18877V15.6061H0V0.291748H9.18877V3.50076H3.20901V12.3971ZM7.29263 9.48055V6.27154H16.4805V21.5859H7.29263V18.3769H13.2724V9.48055H7.29263Z" fill="#3161D1"/>
<path fill-rule="evenodd" clip-rule="evenodd" d="M34.858 16.9187V0.291443H36.0243V6.05299C37.454 5.16291 38.9417 4.71107 40.4439 4.71107C43.4193 4.71107 44.9215 6.22775 44.9215 9.27558V16.9187H43.6964V8.78028C43.6964 6.79638 42.5872 5.81938 40.3851 5.81938C38.9119 5.81938 37.454 6.34455 36.0243 7.37951V16.9187H34.858ZM23.19 16.3933V15.2261C24.5464 15.6933 25.8439 15.9261 27.1569 15.9261C29.7384 15.9261 31.0214 15.1093 31.0214 13.4758C31.0214 12.1484 30.0734 11.4928 28.1628 11.4928H26.6027C24.0357 11.4928 22.7517 10.399 22.7517 8.22588C22.7517 5.89156 24.4585 4.72531 27.8568 4.72531C29.1697 4.72531 30.4383 4.91456 31.8092 5.30844V6.4756C30.4528 6.00837 29.1697 5.77476 27.8568 5.77476C25.2753 5.77476 23.9768 6.5915 23.9768 8.22588C23.9768 9.62575 24.8524 10.3257 26.6027 10.3257H28.1628C30.8901 10.3257 32.2465 11.376 32.2465 13.4758C32.2465 15.8092 30.5551 16.9764 27.1569 16.9764C25.8439 16.9909 24.5609 16.7872 23.19 16.3933ZM47.4583 10.851C47.4583 6.67944 49.3689 4.60862 53.1755 4.60862C56.9966 4.60862 58.8927 6.69393 58.8927 10.851C58.8927 15.0071 56.9821 17.0933 53.1755 17.0933C49.3834 17.0933 47.4728 15.0071 47.4583 10.851ZM53.19 16.043C56.1944 16.043 57.6821 14.2927 57.6821 10.7921C57.6821 7.36488 56.1799 5.64357 53.19 5.64357C50.1857 5.64357 48.698 7.36488 48.698 10.7921C48.6835 14.3072 50.1857 16.043 53.19 16.043ZM61.4021 16.9178V4.66668H62.2767L62.4959 6.7529C63.721 5.39649 65.0919 4.72554 66.6085 4.72554V5.70255C65.1507 5.70255 63.8378 6.41697 62.7005 7.84671V16.9178H61.4021ZM70.2981 2.77123H69.4379V13.6804C69.4379 15.8825 70.4294 16.9908 72.4278 16.9908H74.236V15.9414H72.3988C71.2172 15.9414 70.5897 15.1246 70.5897 13.5201V5.83355H74.236V4.66729H70.5172L70.2981 2.77123Z" fill="#474F65"/>
<path fill-rule="evenodd" clip-rule="evenodd" d="M103.26 0H105.885V2.62498H103.26V0ZM81.7041 4.49193C79.9684 4.49193 78.2624 4.66669 76.629 5.00262L76.4243 5.04608V21.7313H79.0937V16.7865C79.9249 17.0934 80.8005 17.2537 81.6752 17.2537C85.7734 17.2537 87.8442 15.0072 87.8442 10.574C87.8442 6.53378 85.7878 4.49193 81.7041 4.49193ZM79.0933 7.04472C79.8367 6.89894 80.7123 6.81111 81.6893 6.81111C84.0671 6.81111 85.2189 8.03622 85.2189 10.5453C85.2189 13.4473 84.0526 14.8617 81.6748 14.8617C80.7413 14.8617 79.8666 14.6869 79.1078 14.322V7.04472H79.0933ZM95.1512 4.49193C91.1109 4.49193 89.0691 6.6361 89.0691 10.8656C89.0836 15.0806 91.1254 17.2247 95.1512 17.2247C99.1914 17.2247 101.233 15.0806 101.233 10.8656C101.233 6.6361 99.1769 4.49193 95.1512 4.49193ZM95.1514 14.9784C92.8614 14.9784 91.7386 13.622 91.7386 10.8223C91.7386 8.09405 92.8614 6.75304 95.1514 6.75304C97.4413 6.75304 98.5641 8.07957 98.5641 10.8223C98.5641 13.622 97.4413 14.9784 95.1514 14.9784ZM105.885 4.52082H103.26V17.2102H105.885V4.52082ZM114.767 4.49193C113.339 4.49193 112.011 4.95825 110.801 5.86282L110.466 4.52091H108.555V17.2103H111.282V8.21072C112.317 7.27718 113.353 6.81086 114.476 6.81086C116.154 6.81086 116.97 7.59862 116.97 9.27556V17.2103H119.595V9.30454C119.595 6.11093 117.976 4.49193 114.767 4.49193ZM127.618 4.52107V6.7087H124.687V13.5206C124.687 14.5266 125.022 14.9784 125.867 14.9784H127.618V17.2104H125.313C123.14 17.2104 121.988 16.0143 121.988 13.6954V2.47922H123.797L124.263 4.52107H127.618Z" fill="#3161D1"/>
</svg>
